<svg width="175" height="175" viewBox="0 0 175 175" fill="none" xmlns="http://www.w3.org/2000/svg">
<rect x="0.000183105" width="175" height="175" rx="50" fill="#0D001E"/>
<path fill-rule="evenodd" clip-rule="evenodd" d="M166.54 93.4832C166.139 93.1621 162.389 90.3605 154.488 90.3605C152.511 90.3605 150.426 90.5388 148.26 90.8912C146.733 80.5034 138.078 75.4433 137.676 75.2141L135.552 74L134.153 75.9966C134.048 76.1451 131.589 79.6912 130.383 84.7385C128.966 90.6661 129.826 96.2315 132.866 100.996C129.194 103.019 123.333 103.547 122.117 103.563H24.6322C22.0888 103.563 20.0109 105.61 20.0009 108.127C19.9624 117.011 21.4404 125.596 24.2738 132.952C27.6341 141.677 32.6324 148.1 39.1274 152.044C46.4121 156.464 58.2723 159 71.665 159C77.9315 159 84.1781 158.44 89.7277 157.379C98.4733 155.709 106.413 152.852 113.325 148.891C119.353 145.437 124.767 141.043 129.417 135.836C137.142 127.179 141.743 117.51 145.165 108.954C145.626 108.972 146.08 108.981 146.529 108.981C154.984 108.981 160.184 105.633 163.056 102.822C166.171 99.7744 167.279 96.7366 167.395 96.3999L168 94.6436L166.54 93.4832Z" fill="#1B88D8"/>
<line x1="33.7061" y1="47.5956" x2="55.7061" y2="31.5956" stroke="white"/>
<line x1="47.3764" y1="61.3292" x2="40.3764" y2="69.3292" stroke="white"/>
<line x1="34.5661" y1="68.248" x2="30.5661" y2="61.248" stroke="white"/>
<line x1="68.8789" y1="91.5149" x2="80.8789" y2="88.5149" stroke="white"/>
<line x1="106.673" y1="60.6221" x2="121.673" y2="47.6221" stroke="white"/>
<line x1="106.339" y1="60.6326" x2="119.339" y2="72.6326" stroke="white"/>
<line x1="84.5299" y1="81.1698" x2="71.5299" y2="45.1698" stroke="white"/>
<line x1="101.129" y1="27.4831" x2="86.129" y2="31.4831" stroke="white"/>
<path fill-rule="evenodd" clip-rule="evenodd" d="M28.118 81H40.8838C41.4992 81 42.0002 80.486 42.0002 79.8501V68.15C42.0002 67.514 41.4992 67 40.8838 67H28.118C27.5012 67 27.0002 67.514 27.0002 68.15V79.8501C27.0002 80.486 27.5012 81 28.118 81Z" fill="#EAEEFF"/>
<path fill-rule="evenodd" clip-rule="evenodd" d="M48.1181 69H60.8822C61.5008 69 62.0001 68.4493 62.0001 67.768V55.2322C62.0001 54.5507 61.5008 54 60.8822 54H48.1181C47.4998 54 47.0002 54.5507 47.0002 55.2322V67.768C47.0002 68.4493 47.4998 69 48.1181 69Z" fill="#EAEEFF"/>
<path fill-rule="evenodd" clip-rule="evenodd" d="M56.456 47H84.5414C85.8978 47 87.0001 45.8619 87.0001 44.4539V18.5466C87.0001 17.1381 85.8978 16 84.5414 16H56.456C55.0988 16 54.0002 17.1381 54.0002 18.5466V44.4539C54.0002 45.8619 55.0988 47 56.456 47Z" fill="#EAEEFF"/>
<path fill-rule="evenodd" clip-rule="evenodd" d="M55.118 98H67.8823C68.5008 98 69.0001 97.5228 69.0001 96.9323V86.0679C69.0001 85.4773 68.5008 85 67.8823 85H55.118C54.5025 85 54.0002 85.4773 54.0002 86.0679V96.9323C54.0002 97.5228 54.5025 98 55.118 98Z" fill="#EAEEFF"/>
<path fill-rule="evenodd" clip-rule="evenodd" d="M79.0435 96H90.9569C91.5341 96 92.0002 95.4493 92.0002 94.768V82.2322C92.0002 81.5507 91.5341 81 90.9569 81H79.0435C78.469 81 78.0002 81.5507 78.0002 82.2322V94.768C78.0002 95.4493 78.469 96 79.0435 96Z" fill="#EAEEFF"/>
<path fill-rule="evenodd" clip-rule="evenodd" d="M25.0436 62H36.9568C37.5341 62 38.0002 61.4492 38.0002 60.7693V48.2321C38.0002 47.5522 37.5341 47 36.9568 47H25.0436C24.4665 47 24.0002 47.5522 24.0002 48.2321V60.7693C24.0002 61.4492 24.4665 62 25.0436 62Z" fill="#EAEEFF"/>
<path fill-rule="evenodd" clip-rule="evenodd" d="M91.2653 69H105.733C106.432 69 107 68.4492 107 67.7693V55.2321C107 54.5522 106.432 54 105.733 54H91.2653C90.5661 54 90.0001 54.5522 90.0001 55.2321V67.7693C90.0001 68.4492 90.5661 69 91.2653 69Z" fill="#EAEEFF"/>
<path fill-rule="evenodd" clip-rule="evenodd" d="M122.192 54H135.808C136.467 54 137 53.5594 137 53.0155V42.9857C137 42.4418 136.467 42 135.808 42H122.192C121.536 42 121 42.4418 121 42.9857V53.0155C121 53.5594 121.536 54 122.192 54Z" fill="#EAEEFF"/>
<path fill-rule="evenodd" clip-rule="evenodd" d="M102.118 34H114.882C115.5 34 116 33.4846 116 32.8499V21.15C116 20.514 115.5 20 114.882 20H102.118C101.502 20 101 20.514 101 21.15V32.8499C101 33.4846 101.502 34 102.118 34Z" fill="#EAEEFF"/>
<path fill-rule="evenodd" clip-rule="evenodd" d="M113.043 85H124.957C125.534 85 126 84.486 126 83.8501V72.15C126 71.514 125.534 71 124.957 71H113.043C112.466 71 112 71.514 112 72.15V83.8501C112 84.486 112.466 85 113.043 85Z" fill="#EAEEFF"/>
</svg>
